<?xml version="1.0" encoding="utf-8"?>
<!-- Generator: Adobe Illustrator 22.1.0, SVG Export Plug-In . SVG Version: 6.00 Build 0)  -->
<svg version="1.1" id="Capa_1" xmlns="http://www.w3.org/2000/svg" xmlns:xlink="http://www.w3.org/1999/xlink" x="0px" y="0px"
	 viewBox="0 0 60 60" style="enable-background:new 0 0 60 60;" xml:space="preserve">
<style type="text/css">
	.st0{fill:#22B8FD;}
</style>
<g>
	<path class="st0" d="M42.5,4H36V0H24v4h-6.5C15.6,4,14,5.6,14,7.5v49.1c0,1.9,1.6,3.5,3.5,3.5h25.1c1.9,0,3.5-1.6,3.5-3.5V7.5
		C46,5.6,44.4,4,42.5,4z M26,2h8v2h-8V2z M44,56.5c0,0.8-0.7,1.5-1.5,1.5H17.5c-0.8,0-1.5-0.7-1.5-1.5V7.5C16,6.7,16.7,6,17.5,6H24
		h12h6.5C43.3,6,44,6.7,44,7.5V56.5z"/>
	<path class="st0" d="M34,17.1c0-0.4-0.2-0.8-0.6-1l-0.8-0.3l-0.5,0.6L21.2,34H27l0,12.9c0,0.4,0.2,0.8,0.6,1l0.8,0.4l0.5-0.6
		L38.7,29H34V17.1z M35.3,31L29,43.1L29,32h-4.2L32,20.4V31H35.3z"/>
</g>
</svg>
