<?xml version="1.0" encoding="utf-8"?>
<!-- Generator: Adobe Illustrator 22.1.0, SVG Export Plug-In . SVG Version: 6.00 Build 0)  -->
<svg version="1.1" id="Calque_1" xmlns="http://www.w3.org/2000/svg" xmlns:xlink="http://www.w3.org/1999/xlink" x="0px" y="0px"
	 viewBox="0 0 1845.3 281.7" style="enable-background:new 0 0 1845.3 281.7;" xml:space="preserve">
<style type="text/css">
	.st0{display:none;}
	.st1{display:inline;}
	.st2{opacity:0.41;fill:#46B2E6;enable-background:new    ;}
</style>
<g id="Calque_1_1_" class="st0">
	<g id="u2gUei.tif" class="st1">
		
			<image style="overflow:visible;enable-background:new    ;" width="1827" height="275" id="Layer_0_1_" xlink:href="7F8F57F4CFAC784D.png"  transform="matrix(0.9964 0 0 0.9964 12.4968 6.3157)">
		</image>
	</g>
</g>
<g id="Calque_2_1_">
	<circle class="st2" cx="186.7" cy="64.3" r="41.1"/>
	<circle class="st2" cx="507.1" cy="197.1" r="41.1"/>
	<circle class="st2" cx="776.9" cy="105.4" r="41.1"/>
	<circle class="st2" cx="673.6" cy="238.2" r="41.1"/>
	
		<ellipse transform="matrix(0.3827 -0.9239 0.9239 0.3827 483.826 1010.6696)" class="st2" cx="998.2" cy="143.3" rx="41.1" ry="41.1"/>
	<circle class="st2" cx="1355.5" cy="174.4" r="41.1"/>
	<circle class="st2" cx="1697" cy="156" r="41.1"/>
	<circle class="st2" cx="1802" cy="40" r="33.6"/>
	<circle class="st2" cx="1241.7" cy="105.4" r="33.6"/>
	
		<ellipse transform="matrix(4.531443e-02 -0.999 0.999 4.531443e-02 -80.1236 159.3323)" class="st2" cx="43.3" cy="121.6" rx="33.6" ry="33.6"/>
	<circle class="st2" cx="260.5" cy="160.4" r="28.7"/>
	<circle class="st2" cx="603.8" cy="131.7" r="28.7"/>
	<circle class="st2" cx="1589.5" cy="102.2" r="28.7"/>
	<circle class="st2" cx="1491.9" cy="236.1" r="20.6"/>
	<circle class="st2" cx="1119.4" cy="215.5" r="20.6"/>
	<circle class="st2" cx="902.1" cy="181" r="20.6"/>
	<circle class="st2" cx="410.2" cy="87.9" r="20.6"/>
</g>
<g id="Calque_3">
	<g id="lGROC6.tif">
		
			<image style="overflow:visible;enable-background:new    ;" width="1827" height="275" id="Layer_0_2_" xlink:href="7F8F57F4CFAC784F.png"  transform="matrix(0.9964 0 0 0.9964 10.1718 7.7029)">
		</image>
	</g>
</g>
<g id="Calque_4">
</g>
</svg>
