<?xml version="1.0" encoding="utf-8"?>
<!-- Generator: Adobe Illustrator 22.1.0, SVG Export Plug-In . SVG Version: 6.00 Build 0)  -->
<svg version="1.1" id="Layer_1" xmlns="http://www.w3.org/2000/svg" xmlns:xlink="http://www.w3.org/1999/xlink" x="0px" y="0px"
	 viewBox="0 0 512 512" style="enable-background:new 0 0 512 512;" xml:space="preserve">
<style type="text/css">
	.st0{fill:#22B8FD;}
</style>
<g>
	<g>
		<path class="st0" d="M508.9,205.8l-42.7-42.7c-2-2-4.7-3.1-7.6-3.1H448v-10.7c0-2.8-1.1-5.5-3.1-7.6l-85.3-85.3
			C342.4,39.4,313.8,10.7,256,10.7c-57.7,0-84.2,26.5-103.6,45.8c-3,3.1-3.9,7.7-2.3,11.6c1.6,4,5.5,6.6,9.9,6.6c86,0,96,36.5,96,64
			c0,33.2-27.6,55.4-27.9,55.6c-0.2,0.1-0.3,0.4-0.4,0.5c-0.2,0.1-0.4,0.2-0.5,0.3l-211,211C5.7,416.5,0,430.4,0,446.3
			c0,30.4,24.7,55,55,55c15.5,0,30.3-6.6,40.7-18L295.2,264c28.8-21.4,57.4-34.4,67.5-33.6v14.9c0,2.8,1.1,5.5,3.1,7.6l53.3,53.3
			c2,2,4.7,3.1,7.6,3.1c0.1,0,0.2,0,0.4,0c2.9-0.1,5.7-1.4,7.7-3.6l74.7-85.3C513.1,216.1,512.9,209.8,508.9,205.8z M80,469
			C73.6,476,64.5,480,55,480c-18.6,0-33.7-15.1-33.7-35c0-9,3.5-17.5,9.9-23.8l203.5-203.5l38.6,38.6L80,469z M426.2,283.1
			L384,240.9V224c0-2.8-1.1-5.5-3.1-7.6c-20.1-20.1-66.5,7.6-91.8,25.6L250,202.9c10.7-11.3,27.3-33.8,27.3-64.2
			c0-49.9-30.7-78.2-91.4-84.1C201.5,42.1,222,32,256,32c48.9,0,72.7,23.8,88.4,39.5l82.2,82.2v16.9c0,5.9,4.8,10.7,10.7,10.7h16.9
			l32.5,32.5L426.2,283.1z"/>
	</g>
</g>
</svg>
