<svg id="Calque_1" data-name="Calque 1" xmlns="http://www.w3.org/2000/svg" viewBox="0 0 741.82 443.98">
  <defs>
    <style></style>
  </defs>
  <title>robotV2</title>
  <g id="Calque_1-2" data-name="Calque 1">
    <path class="cls-1" d="M382.7,416.8c-20.9,0-51.2-14.4-122.2-18.5-159.2-5.8-45,62.7-177.7,47.3C-24.6,392.6,0-9,116.2,9.5c141.9,98.1,133.2,26.1,266.4,27.7"
      transform="translate(-11.75 -6.38)" />
    <path class="cls-1" d="M382.7,416.8c20.9,0,51.2-14.4,122.2-18.5,159.2-5.8,45,62.7,177.7,47.3C789.9,392.6,765.3-9,649.1,9.5,507.2,107.6,515.9,35.6,382.6,37.2"
      transform="translate(-11.75 -6.38)" />
    <path class="cls-2" d="M140.7,25.7c-21.1,0-31.3,395.3,3.1,418.4C101.7,444.9,102.5,17.1,140.7,25.7Z" transform="translate(-11.75 -6.38)" />
    <path class="cls-3" d="M95.8,10.7C71.1,2.4,46.9,408,91,445.7c27,2.3,21.3,2.5,27,2.3C94.7,405.7,75.6,26,123,14.2,120.7,8.9,100.7,7.1,95.8,10.7Z"
      transform="translate(-11.75 -6.38)" />
    <path class="cls-2" d="M625.9,25.7c21.1,0,31.3,395.3-3.1,418.4C664.9,444.9,664.1,17.1,625.9,25.7Z" transform="translate(-11.75 -6.38)" />
    <path class="cls-3" d="M670.8,10.7c24.7-8.3,48.8,397.3,4.7,435-27,2.3-21.3,2.5-27,2.3,23.3-42.3,42.4-422-5-433.8C645.9,8.9,665.9,7.1,670.8,10.7Z"
      transform="translate(-11.75 -6.38)" />
    <path class="cls-4" d="M382.7,416.8c20.9,0,51.2-14.4,122.2-18.5,159.2-5.8,45,62.7,177.7,47.3C789.9,392.6,765.3-9,649.1,9.5,507.2,107.6,515.9,35.6,382.6,37.2"
      transform="translate(-11.75 -6.38)" />
    <path class="cls-4" d="M382.7,416.8c-20.9,0-51.2-14.4-122.2-18.5-159.2-5.8-45,62.7-177.7,47.3C-24.6,392.6,0-9,116.2,9.5c141.9,98.1,133.2,26.1,266.4,27.7"
      transform="translate(-11.75 -6.38)" />
    <path d="M486.8,261.7H278.7a55.14,55.14,0,0,1-55.1-55.1h0a55.14,55.14,0,0,1,55.1-55.1H486.8a55.14,55.14,0,0,1,55.1,55.1h0A55.08,55.08,0,0,1,486.8,261.7Z"
      transform="translate(-11.75 -6.38)" />
    <polygon class="cls-3" points="488.45 -230.78 488.45 -230.78 488.45 -230.78 488.45 -230.78" />
    <ellipse cx="372.05" cy="288.52" rx="15.8" ry="7.3" />
    <path class="cls-5" d="M429.2,399.5H337.7a19,19,0,0,1-19-19h0a19,19,0,0,1,19-19h91.5a19,19,0,0,1,19,19h0A19,19,0,0,1,429.2,399.5Z"
      transform="translate(-11.75 -6.38)" />
    <path class="cls-6" d="M335.4,152.8l108.9,67.6s54.5.5,67,0c24.6-6.6,32.1-58.5-13.4-65.6C453.3,151.8,335.4,152.8,335.4,152.8Z"
      transform="translate(-11.75 -6.38)" />
    <path class="cls-7" d="M448.2,384.5" transform="translate(-11.75 -6.38)" />
    <path class="cls-7" d="M318.7,385.5" transform="translate(-11.75 -6.38)" />
    <path class="cls-8" d="M447.1,380.5c0,7.1-4.7,12.8-11.8,12.8H332.4a12.76,12.76,0,0,1-12.8-12.8h0" transform="translate(-11.75 -6.38)" />
  </g>
  <g id="Calque_3" data-name="Calque 3">
    <path class="cls-6" d="M223.7,203.2c1.3-8.9,17-43.4,39.5-44.7,6.1,2.3,6.8,6.8,6.8,6.8s-38.3,12.3-39,40Z" transform="translate(-11.75 -6.38)" />
  </g>
</svg>
