<?xml version="1.0" encoding="utf-8"?>
<!-- Generator: Adobe Illustrator 22.1.0, SVG Export Plug-In . SVG Version: 6.00 Build 0)  -->
<svg version="1.1" xmlns="http://www.w3.org/2000/svg" xmlns:xlink="http://www.w3.org/1999/xlink" x="0px" y="0px"
	 viewBox="0 0 765.3 603.8" style="enable-background:new 0 0 765.3 603.8;" xml:space="preserve">
<style type="text/css">
	.st0{fill:#FFFFFF;stroke:#000000;stroke-miterlimit:10;}
	.st1{fill:#727171;}
	.st2{fill:#D8D8D8;}
	.st3{fill:none;stroke:#000000;stroke-width:5;stroke-miterlimit:10;}
	.st4{fill:#1C1C1C;stroke:#FFFFFF;stroke-miterlimit:10;}
	.st5{opacity:0.26;fill:#878686;}
	.st6{fill:none;stroke:#878686;stroke-miterlimit:10;}
	.st7{fill:none;stroke:#777777;stroke-miterlimit:10;}
</style>
<g id="Calque_1">
	<path class="st0" d="M382.7,476.8c-20.9,0-51.2-14.4-122.2-18.5c-159.2-5.8-45,62.7-177.7,47.3C-24.6,452.6,0,51,116.2,69.5
		c141.9,98.1,133.2,26.1,266.4,27.7"/>
	<path class="st0" d="M382.7,476.8c20.9,0,51.2-14.4,122.2-18.5c159.2-5.8,45,62.7,177.7,47.3C789.9,452.6,765.3,51,649.1,69.5
		c-141.9,98.1-133.2,26.1-266.5,27.7"/>
	<path class="st1" d="M140.7,85.7c-21.1,0-31.3,395.3,3.1,418.4C101.7,504.9,102.5,77.1,140.7,85.7z"/>
	<path class="st2" d="M95.8,70.7C71.1,62.4,46.9,468,91,505.7c27,2.3,21.3,2.5,27,2.3c-23.3-42.3-42.4-422,5-433.8
		C120.7,68.9,100.7,67.1,95.8,70.7z"/>
	<path class="st1" d="M625.9,85.7c21.1,0,31.3,395.3-3.1,418.4C664.9,504.9,664.1,77.1,625.9,85.7z"/>
	<path class="st2" d="M670.8,70.7c24.7-8.3,48.8,397.3,4.7,435c-27,2.3-21.3,2.5-27,2.3c23.3-42.3,42.4-422-5-433.8
		C645.9,68.9,665.9,67.1,670.8,70.7z"/>
	<g>
		<path class="st3" d="M382.7,476.8c20.9,0,51.2-14.4,122.2-18.5c159.2-5.8,45,62.7,177.7,47.3C789.9,452.6,765.3,51,649.1,69.5
			c-141.9,98.1-133.2,26.1-266.5,27.7"/>
		<path class="st3" d="M382.7,476.8c-20.9,0-51.2-14.4-122.2-18.5c-159.2-5.8-45,62.7-177.7,47.3C-24.6,452.6,0,51,116.2,69.5
			c141.9,98.1,133.2,26.1,266.4,27.7"/>
	</g>
	<path d="M486.8,321.7H278.7c-30.4,0-55.1-24.7-55.1-55.1v0c0-30.4,24.7-55.1,55.1-55.1h208.1c30.4,0,55.1,24.7,55.1,55.1v0
		C541.9,297,517.3,321.7,486.8,321.7z"/>
	<polygon class="st2" points="500.2,-164.4 500.2,-164.4 500.2,-164.4 500.2,-164.4 	"/>
	<ellipse cx="383.8" cy="354.9" rx="15.8" ry="7.3"/>
	<path class="st4" d="M429.2,459.5h-91.5c-10.5,0-19-8.5-19-19v0c0-10.5,8.5-19,19-19h91.5c10.5,0,19,8.5,19,19v0
		C448.2,451,439.7,459.5,429.2,459.5z"/>
	<path class="st5" d="M335.4,212.8l108.9,67.6c0,0,54.5,0.5,67,0c24.6-6.6,32.1-58.5-13.4-65.6C453.3,211.8,335.4,212.8,335.4,212.8
		z"/>
	<path class="st6" d="M448.2,444.5"/>
	<path class="st6" d="M318.7,445.5"/>
	<path class="st7" d="M447.1,440.5c0,7.1-4.7,12.8-11.8,12.8H332.4c-7.1,0-12.8-5.7-12.8-12.8l0,0"/>
</g>
<g id="Calque_3">
	<path class="st5" d="M223.7,263.2c1.3-8.9,17-43.4,39.5-44.7c6.1,2.3,6.8,6.8,6.8,6.8s-38.3,12.3-39,40L223.7,263.2z"/>
</g>
</svg>
