<?xml version="1.0" encoding="utf-8"?>
<!-- Generator: Adobe Illustrator 22.1.0, SVG Export Plug-In . SVG Version: 6.00 Build 0)  -->
<svg version="1.1" id="Calque_1" xmlns="http://www.w3.org/2000/svg" xmlns:xlink="http://www.w3.org/1999/xlink" x="0px" y="0px"
	 viewBox="0 0 512 512" style="enable-background:new 0 0 512 512;" xml:space="preserve">
<style type="text/css">
	.st0{fill:#22B8FD;}
</style>
<g>
	<path class="st0" d="M272.2,2c-3.8,0-7.4,1.9-9.6,5.1c-6.3,9.2-155.4,227.6-155.4,338c0,91,74,165,165,165s165-74,165-165
		c0-110.4-149-328.8-155.4-338C279.6,3.9,276,2,272.2,2L272.2,2z M272.2,486.7c-78.1,0-141.7-63.6-141.7-141.7
		c0-87.8,108.4-259.7,141.7-310.4C305.5,85.3,413.9,257.2,413.9,345C413.9,423.2,350.3,486.7,272.2,486.7z"/>
	<path class="st0" d="M260.6,444.1c0,6.4,5.2,11.6,11.6,11.6c61,0,110.7-49.6,110.7-110.7c0-6.4-5.2-11.6-11.6-11.6
		c-6.4,0-11.6,5.2-11.6,11.6c0,48.2-39.2,87.4-87.4,87.4C265.8,432.4,260.6,437.6,260.6,444.1z"/>
	<path class="st0" d="M500.4,49.1h-22.6V26.5c0-6.4-5.2-11.6-11.6-11.6c-6.4,0-11.6,5.2-11.6,11.6v22.6h-22.6
		c-6.4,0-11.6,5.2-11.6,11.6s5.2,11.6,11.6,11.6h22.6V95c0,6.4,5.2,11.6,11.6,11.6c6.4,0,11.6-5.2,11.6-11.6V72.4h22.6
		c6.4,0,11.6-5.2,11.6-11.6S506.8,49.1,500.4,49.1z"/>
	<path class="st0" d="M80.1,399.5H57.5v-22.6c0-6.4-5.2-11.6-11.6-11.6s-11.6,5.2-11.6,11.6v22.6H11.6c-6.4,0-11.6,5.2-11.6,11.6
		c0,6.4,5.2,11.6,11.6,11.6h22.6v22.6c0,6.4,5.2,11.6,11.6,11.6s11.6-5.2,11.6-11.6v-22.6h22.6c6.4,0,11.6-5.2,11.6-11.6
		C91.8,404.7,86.6,399.5,80.1,399.5z"/>
</g>
</svg>
